PathFileType	4	(X/Y/Z)	/Users/niels/Desktop/University/Third Semester/Perception and Action/Exam/Gymnastics Motion Tracking/Code for Gym Tracking/Analyzed Data/Webcam_Backflip/id1_5_baseline_Sports2D/id1_5_baseline_Sports2D_px_person00.trc
DataRate	CameraRate	NumFrames	NumMarkers	Units	OrigDataRate	OrigDataStartFrame	OrigNumFrames
29.87551867219917	29.87551867219917	9	22	m	29.87551867219917	210	241
Frame#	Time	Hip			RHip			RKnee			RAnkle			RBigToe			RSmallToe			RHeel			LHip			LKnee			LAnkle			LBigToe			LSmallToe			LHeel			Neck			Head			Nose			RShoulder			RElbow			RWrist			LShoulder			LElbow			LWrist		
		X1	Y1	Z1	X2	Y2	Z2	X3	Y3	Z3	X4	Y4	Z4	X5	Y5	Z5	X6	Y6	Z6	X7	Y7	Z7	X8	Y8	Z8	X9	Y9	Z9	X10	Y10	Z10	X11	Y11	Z11	X12	Y12	Z12	X13	Y13	Z13	X14	Y14	Z14	X15	Y15	Z15	X16	Y16	Z16	X17	Y17	Z17	X18	Y18	Z18	X19	Y19	Z19	X20	Y20	Z20	X21	Y21	Z21	X22	Y22	Z22
210	7.029166666666667	0.9205519772760162	-0.6005689873012588	0.0	0.9101741501864403	-0.5994041704933865	0.0	0.9097706759586821	-0.7026426962716918	0.0	0.8958379459960517	-0.8135482139311182	0.0	0.9340525724350337	-0.833975116655454	0.0	0.925288286365641	-0.8376162891081297	0.0	0.8901112386740201	-0.8322908012505666	0.0	0.931500374201711	-0.6004592619886667	0.0	0.9187270839497426	-0.7031207818719658	0.0	0.9004292425785703	-0.8090708894101178	0.0	0.941578291133609	-0.8300142163679124	0.0	0.9389836879642037	-0.8264138499459874	0.0	0.8904615986385161	-0.8254899366620686	0.0	0.9229758235066521	-0.4403155073593049	0.0	0.936046509470036	-0.3695884605690818	0.0	0.9352168033631253	-0.41079039343264784	0.0	0.8900005997550823	-0.4648436312695156	0.0	0.8735844806077974	-0.5349966739831041	0.0	0.896044302598407	-0.6029036788461635	0.0	0.9428622157467969	-0.46699256615139945	0.0	0.943326251073109	-0.5388680805910098	0.0	0.9712243851910237	-0.6024751989281191	0.0
211	7.062638888888889	0.9208150652187151	-0.6002264532364742	0.0	0.9104970695330423	-0.5991626052895892	0.0	0.9101608538890306	-0.7025428547282366	0.0	0.8957861780683851	-0.8134646747917729	0.0	0.9340881232429127	-0.8337501698237041	0.0	0.9252459473004411	-0.8374468497446039	0.0	0.8899217734012111	-0.8319775779995306	0.0	0.9318440947327824	-0.6001959716994666	0.0	0.9189886659495258	-0.7029524304604139	0.0	0.9005432639477999	-0.8089895461485533	0.0	0.9416886922582145	-0.8298734326982744	0.0	0.9392404218279279	-0.8262889386101271	0.0	0.8903910326557452	-0.8252185356698609	0.0	0.9229227025391594	-0.440301301943187	0.0	0.9361241012085174	-0.3694496387826216	0.0	0.9353301693851822	-0.4108881392572054	0.0	0.8900985017440228	-0.4651190106477379	0.0	0.8740051975429324	-0.5354570723917846	0.0	0.8971494236824313	-0.6030807087425462	0.0	0.9427095752709398	-0.46697956551054465	0.0	0.9433038527952574	-0.5389597972993755	0.0	0.9702513376757056	-0.6027375925427187	0.0
212	7.096111111111111	0.9212624890560124	-0.5994541133698115	0.0	0.9109153731021763	-0.598373297412417	0.0	0.9106434172768277	-0.7018406568180321	0.0	0.8956862632472451	-0.8126560529773117	0.0	0.9341846784693676	-0.8329757112585208	0.0	0.9251805739020915	-0.8366823599635133	0.0	0.8896383294614918	-0.8309111352184494	0.0	0.9324201244196152	-0.5993542804646	0.0	0.9194742847690602	-0.7021942416339603	0.0	0.9007680870569436	-0.8082402824132234	0.0	0.9419407878419773	-0.829194643511541	0.0	0.9396981646257504	-0.8257497247496294	0.0	0.8904216339860754	-0.824316251518949	0.0	0.9228626992097942	-0.43968486437804144	0.0	0.9363607891160339	-0.36866707761932616	0.0	0.9357305263976562	-0.41037795202025934	0.0	0.8901477677139371	-0.46481076834894147	0.0	0.8742873862574221	-0.5353923034912556	0.0	0.8980026517337611	-0.6027826154959315	0.0	0.9425546408134255	-0.4664045163770337	0.0	0.9431447223239975	-0.5385073621069026	0.0	0.9684700204519957	-0.602400819389557	0.0
213	7.129583333333334	0.921877115397005	-0.5983889127128388	0.0	0.9114115963834882	-0.5970564847754829	0.0	0.9111437723321261	-0.7006839752358995	0.0	0.8955883046471161	-0.8112323671374647	0.0	0.9344056041294041	-0.8317714725099877	0.0	0.9251336382380287	-0.8354932077722127	0.0	0.8892763685903297	-0.8292689254845387	0.0	0.9332588259370915	-0.5979828705679094	0.0	0.9201717430347914	-0.7009780243749411	0.0	0.9011066422399525	-0.8069074722028282	0.0	0.9423549494078288	-0.8281298937162563	0.0	0.9403619080273606	-0.8248551913810296	0.0	0.8905403070897929	-0.8228276418590728	0.0	0.9228168858006556	-0.43859527819659855	0.0	0.9367231939587785	-0.36729159850737997	0.0	0.9365051757787608	-0.4092675452189304	0.0	0.8901337725435768	-0.4639615562379015	0.0	0.8744408448417496	-0.5349161016812649	0.0	0.8986313328476774	-0.6021177711939846	0.0	0.9423899783131714	-0.465278258093531	0.0	0.9427432815963699	-0.5375103839753953	0.0	0.9661317261956549	-0.6014805184405794	0.0
214	7.163055555555555	0.922611354617804	-0.5971506618518472	0.0	0.9120035870915985	-0.595278192025269	0.0	0.911609540351027	-0.6992351527051571	0.0	0.895561699792753	-0.8094154172022763	0.0	0.9348064116894439	-0.8302871958477934	0.0	0.9251499977606624	-0.8340535122466949	0.0	0.8888869801401182	-0.8273059713045885	0.0	0.9343340588529504	-0.5961517834429334	0.0	0.9210028755799147	-0.6994877361665819	0.0	0.9015497690337442	-0.8051702237890024	0.0	0.9428938692363326	-0.8268303589944624	0.0	0.941140169921238	-0.8236566563102536	0.0	0.8906984186727893	-0.820898511359572	0.0	0.9228061466721061	-0.4372032397760375	0.0	0.9371652071282096	-0.3654450461895699	0.0	0.937652765620394	-0.40766429007476446	0.0	0.8900679984174181	-0.46265755272802916	0.0	0.8744963252196336	-0.5341669610856734	0.0	0.8991227101543142	-0.6011916111478411	0.0	0.9422228749317657	-0.463655920560778	0.0	0.9420067857529029	-0.5360500731405964	0.0	0.9634923655522788	-0.600075842884273	0.0
215	7.196527777777778	0.9233937998555434	-0.5958504312738694	0.0	0.9126951803952332	-0.5932081468354424	0.0	0.9120164689316698	-0.697617131826085	0.0	0.8956469625805368	-0.8074765350668973	0.0	0.9353410206301502	-0.8287025043775944	0.0	0.9252250422556051	-0.832515424816934	0.0	0.8885464735626201	-0.8252929859463989	0.0	0.9355175295593662	-0.5940025861630678	0.0	0.9218375107345671	-0.6978809649048517	0.0	0.9020513681846759	-0.8032491511032669	0.0	0.9434170813974913	-0.8254251216496739	0.0	0.9418448433044789	-0.8222248044269032	0.0	0.8908400886056073	-0.8187691531231871	0.0	0.9228188199931198	-0.4356813409810147	0.0	0.9376799708595454	-0.36331029339890614	0.0	0.9390757647257487	-0.4057753118212882	0.0	0.8900178016377279	-0.46104246007685645	0.0	0.8745045421736422	-0.5332440238620708	0.0	0.8995424848764764	-0.6000747310730878	0.0	0.9420289418238572	-0.46166775478126837	0.0	0.9409243146594484	-0.5342530911386113	0.0	0.9607882862813164	-0.5983333018890286	0.0
216	7.23	0.9241487361906384	-0.5945871974455095	0.0	0.9134319642326216	-0.5911056416726659	0.0	0.9123487132581002	-0.6959265027603937	0.0	0.8958343081886931	-0.8056495721192068	0.0	0.9358886126844083	-0.827205338668783	0.0	0.925329139642717	-0.8310147824367685	0.0	0.8883291940951187	-0.8234549232407131	0.0	0.9366097119532386	-0.5917633952191673	0.0	0.9225350717352939	-0.6962563717534893	0.0	0.9025149658342934	-0.8013597005315549	0.0	0.9437740178109197	-0.8240541024247355	0.0	0.9423127156967317	-0.8206865874295534	0.0	0.8909232116969372	-0.8167094744327191	0.0	0.9228231970706545	-0.43417539582517267	0.0	0.9382981342352659	-0.3611163362564215	0.0	0.9406283439567479	-0.4038308459806489	0.0	0.8900893771060999	-0.4593077621543473	0.0	0.8745162550463976	-0.5322016111727265	0.0	0.8999030524180577	-0.5988305800161903	0.0	0.9417278584376381	-0.4595168365338997	0.0	0.9395580196134853	-0.5322273094023826	0.0	0.9582088737679545	-0.5963857512672698	0.0
217	7.263472222222222	0.9248012973280904	-0.5934726370325067	0.0	0.9141196924263785	-0.5892465866721901	0.0	0.9125967316069734	-0.6942947952803402	0.0	0.8960748146926377	-0.8040805479747867	0.0	0.9363578215435135	-0.8259665343071975	0.0	0.9254699218986018	-0.8296816903306757	0.0	0.8882762260114999	-0.8219462973880663	0.0	0.9374360049869219	-0.5897272423883726	0.0	0.9230095736709764	-0.6947130789207	0.0	0.9028326018669773	-0.7996863483989094	0.0	0.943925556895586	-0.8228761364023072	0.0	0.9425103587494814	-0.8192343537780137	0.0	0.890932966961495	-0.8149508715833895	0.0	0.922803995480457	-0.432807857166454	0.0	0.9390203768034726	-0.3591110378643587	0.0	0.9421547462922318	-0.40203141931273495	0.0	0.8903614653996593	-0.4576494129210905	0.0	0.8745681945081126	-0.53109331791613	0.0	0.9002190587857022	-0.5975839227276022	0.0	0.9412581786001987	-0.45745279593767946	0.0	0.9380126371760462	-0.5300928263394831	0.0	0.9558906164894252	-0.5943580326771596	0.0
218	7.296944444444445	0.9252977813106198	-0.5926345375275807	0.0	0.9146812691986667	-0.5878410932419951	0.0	0.9127609525124923	-0.6929146439674428	0.0	0.8963029353400506	-0.8028550467860868	0.0	0.9367292681753984	-0.8251075315019917	0.0	0.9257058227609436	-0.8286528433782531	0.0	0.8883876890075566	-0.8208582017785805	0.0	0.9379182199972181	-0.5881762799274856	0.0	0.923257627639349	-0.6934186961972547	0.0	0.9029577905908311	-0.7983771188202138	0.0	0.9439292729584874	-0.822027007679371	0.0	0.9424968884646574	-0.8180891123361973	0.0	0.8908959784767078	-0.8136657814174182	0.0	0.9227925981115528	-0.43168109134078425	0.0	0.939761503654987	-0.3575255100553015	0.0	0.9435176154448791	-0.4005403211889039	0.0	0.8908422663341131	-0.45621315963407205	0.0	0.8746786297552593	-0.5300075187790841	0.0	0.900549634575796	-0.5965268957018286	0.0	0.9406622429771271	-0.45573790872842346	0.0	0.9364438544810039	-0.5280879584790348	0.0	0.9539352936378626	-0.5924796087526598	0.0
